<svg width="200" height="52" viewBox="0 0 200 52" fill="none" xmlns="http://www.w3.org/2000/svg">
<path d="M0 51.2163H25.9242V12.6133L0 25.6678V51.2163Z" fill="#1C5CF5"/>
<path d="M47.9609 51.2163H75.3876L50.796 0L28.5744 11.1108L47.9609 51.2163Z" fill="#1C5CF5"/>
<path d="M100.578 20.8651C105.506 20.8651 109.57 24.9285 109.57 29.8563C109.57 33.6603 107.191 37.1184 103.56 38.3288L110.735 51.1239H105.244L98.6734 38.8892H91.8853V51.1239H87.1303V20.8651H100.578ZM91.8912 34.5695H100.581C102.916 34.5695 104.904 32.2353 104.904 29.8563C104.904 26.4846 101.965 25.316 99.1534 25.316H91.8912V34.5695Z" fill="#0C1926"/>
<path d="M120.636 28.646V51.1239H116.054V32.751L113.546 31.9312V28.646H120.636ZM120.722 22.5077C120.722 24.0639 119.381 25.316 117.869 25.316C116.268 25.316 115.103 24.0609 115.103 22.5077C115.103 20.9546 116.271 19.6965 117.869 19.6965C119.467 19.6965 120.722 20.9933 120.722 22.5077Z" fill="#0C1926"/>
<path d="M135.592 28.2584C141.039 28.2584 144.151 30.6791 144.151 35.6517V46.0708C144.151 46.7625 144.539 46.9354 145.275 46.9354C145.621 46.9354 146.357 46.8936 147.049 46.8072V50.5247C146.834 50.6558 145.233 51.1298 143.895 51.1298C142.166 51.1298 140.177 50.3518 140.177 48.2352V47.8446C139.053 50.1789 136.46 51.5204 133.001 51.5204C128.548 51.5204 124.961 49.0132 124.961 44.3C124.961 39.1545 129.284 37.2973 134.558 37.2973C136.114 37.2973 138.666 37.4702 139.703 37.6431V36.388C139.703 32.8852 137.411 32.1071 134.817 32.1071C133.001 32.1071 129.889 32.4946 127.77 33.0134L126.905 29.6834C128.72 29.0782 132.352 28.2554 135.595 28.2554L135.592 28.2584ZM135.205 40.5795C132.611 40.5795 129.239 41.0535 129.239 44.2106C129.239 46.673 131.314 47.7999 133.735 47.7999C136.719 47.7999 139.7 45.9397 139.7 43.346V41.0118C138.88 40.7942 136.934 40.5795 135.205 40.5795Z" fill="#0C1926"/>
<path d="M155.736 46.0231C155.736 46.7148 156.126 46.9294 156.645 46.9294C157.25 46.9294 157.855 46.8877 158.547 46.8012V50.5187C158.288 50.6499 156.341 51.1239 154.871 51.1239C152.105 51.1239 151.067 49.1355 151.067 47.1023V19.4789H155.736V46.0231Z" fill="#0C1926"/>
<path d="M178.601 23.8046C177.218 23.1576 174.753 22.5942 173.241 22.5942C170.215 22.5942 169.22 24.8837 169.22 26.6158V28.646H181.755V51.1239H177.173V32.1041H169.22V51.1239H164.596V32.1041H161.179V29.2958L164.596 28.646V26.6575C164.596 21.5985 168.185 18.7038 173.026 18.7038C175.015 18.7038 177.695 19.1778 180.333 20.6505L178.604 23.8046H178.601Z" fill="#1C5CF5"/>
<path d="M193.731 22.1619V28.646H198.918V32.1041H193.731V43.8618C193.731 45.8085 194.464 47.1917 196.542 47.1917C197.32 47.1917 198.271 47.0636 199.308 46.9324L200 50.2623C198.831 50.7363 197.233 51.1269 195.806 51.1269C190.749 51.1269 189.062 48.6197 189.062 43.3878V32.1041H185.908V29.2958L189.062 28.6907L189.795 22.1619H193.731Z" fill="#1C5CF5"/>
</svg>
